<?xml version="1.0" encoding="UTF-8" standalone="no"?>
<!-- Generator: Adobe Illustrator 25.2.3, SVG Export Plug-In . SVG Version: 6.00 Build 0)  -->

<svg
   version="1.1"
   id="Layer_2"
   x="0px"
   y="0px"
   viewBox="0 0 128 128"
   style="enable-background:new 0 0 128 128;"
   xml:space="preserve"
   sodipodi:docname="git-hook.svg"
   inkscape:version="1.2.2 (b0a8486541, 2022-12-01)"
   xmlns:inkscape="http://www.inkscape.org/namespaces/inkscape"
   xmlns:sodipodi="http://sodipodi.sourceforge.net/DTD/sodipodi-0.dtd"
   xmlns="http://www.w3.org/2000/svg"
   xmlns:svg="http://www.w3.org/2000/svg"><defs
   id="defs130"><clipPath
     id="a"><path
       d="M0 .113h91.887V92H0Zm0 0"
       id="path290" /></clipPath></defs><sodipodi:namedview
   id="namedview128"
   pagecolor="#ffffff"
   bordercolor="#000000"
   borderopacity="0.25"
   inkscape:showpageshadow="2"
   inkscape:pageopacity="0.0"
   inkscape:pagecheckerboard="0"
   inkscape:deskcolor="#d1d1d1"
   showgrid="false"
   inkscape:zoom="3.6875"
   inkscape:cx="32.542373"
   inkscape:cy="56.135593"
   inkscape:window-width="1874"
   inkscape:window-height="986"
   inkscape:window-x="0"
   inkscape:window-y="0"
   inkscape:window-maximized="1"
   inkscape:current-layer="Layer_2" />
<path
   style="fill:#cdd6f4;fill-opacity:1"
   d="M68.54,16.14c0,0-9.64,4.87-11.85,13.63c-2.22,8.75,1.22,16.06-0.44,20.83s-3.77,6.43-4.54,7.64  c-0.78,1.22-6.2,5.32-6.2,5.32l3.66,2.44c0,0,9.42-8.2,10.64-15.4c1.17-6.92-1.55-14.73,0.22-20.16c1.73-5.3,5.87-8.75,9.31-10.97  C73.22,16.94,68.54,16.14,68.54,16.14z"
   id="path90" />


<radialGradient
   id="SVGID_1_"
   cx="10.9406"
   cy="62.0372"
   r="46.8265"
   gradientUnits="userSpaceOnUse">
	<stop
   offset="0.7756"
   style="stop-color:#1383BB"
   id="stop96" />
	<stop
   offset="0.7983"
   style="stop-color:#208BC0"
   id="stop98" />
	<stop
   offset="0.8402"
   style="stop-color:#42A0CE"
   id="stop100" />
	<stop
   offset="0.8963"
   style="stop-color:#79C1E3"
   id="stop102" />
	<stop
   offset="0.9177"
   style="stop-color:#90CFEC"
   id="stop104" />
</radialGradient>




<path
   style="fill:#585b70;fill-opacity:1"
   d="M109.27,78.4l-8.56-2.74c0,0,21.94-53.64,4-63.26c-17.24-9.25-32.51,6.07-34.11,7.22  c-1.6,1.14-3.12,1.01-3.58,0.21c-0.46-0.8-1.03-2.74,2.51-5.71s16.38-16.13,36.08-8.22c19.07,7.65,12.76,36.21,12.22,41.34  C116.81,56.94,109.27,78.4,109.27,78.4z"
   id="path115" />
<path
   style="fill:#f2cdcd;fill-opacity:1"
   d="M100.59,73.04c1.11-1.36,2.07-1.93,6.41-0.33c4.34,1.6,4.11,3.84,3.64,5.13  c-0.29,0.78-3.49,11.97-8.4,24.18s-8.39,18.87-9.07,19.78s-2.51,2.74-6.85,1.48c-4.34-1.26-4.48-5.91-4-7.42  c1.03-3.2,8.79-18.16,12.22-27.52S99.48,74.4,100.59,73.04z"
   id="path117" />
<path
   style="fill:#585b70;fill-opacity:1"
   d="M102.1,79.87c-1.77-0.59-2.91,0.87-4.36,4.65c-1.45,3.78-2.91,6.59-2.91,6.59s-0.97,3.39,1.26,4.16  s3.24-1.53,3.97-3.39c1.07-2.71,2.61-6.3,3.1-7.94C103.65,82.29,103.84,80.45,102.1,79.87z"
   id="path119" />
<path
   style="fill:#585b70;fill-opacity:1"
   d="M87.18,87.71l-10.85,1.45c0,0-0.73,1.67-1.42,3.71c-0.78,0.39-2.44,1.24-4,2.1  c-2.13,1.16-3.78,2.03-3.78,2.03h-3.78l-0.86,5.5c0,0,1.85,0.97,4,0.92c1.73-0.04,5.63-3,7.25-4.35c0.03,0.14,0.07,0.28,0.1,0.41  c0.43,1.89,1.95,2.8,1.95,2.8s-2.7,5.25-1.99,7.12c0.53,1.38,3.64,3.41,6.74,3.29c2.32-0.1,4.65-6.85,4.65-6.85s3.97,0.57,6.1-3.4  s2.95-6.75,2.95-6.75L87.18,87.71z"
   id="path121" />
<path
   style="fill:#fab387;fill-opacity:1"
   d="M57.75,97.24c-0.87,2.31,0,4.33,2.75,5.49s4.91,0.64,4.91,0.64s-1.58-2.4-0.53-4.27  c0.94-1.67,2.26-2.1,2.26-2.1s-2.01-2.53-5.18-2.64C60.26,94.32,58.45,95.37,57.75,97.24z"
   id="path123" />
<path
   style="fill:#9399b2;fill-opacity:1"
   d="M89.89,82.16c-6.2-2.35-9.35-0.06-10.64,1.29c-1.29,1.34-2.92,5.72-2.92,5.72s4.43,0.51,9.36,2.47  c4.88,1.94,8.41,4.49,8.41,4.49s2.38-5.24,1.42-8.44C94.86,85.47,93.75,83.62,89.89,82.16z"
   id="path125" />
<path
   style="fill:#f38ba8;fill-opacity:1;fill-rule:nonzero;stroke:none;stroke-width:0.675211"
   d="M 65.613493,69.248298 38.523988,42.160815 a 3.9959046,3.9959046 0 0 0 -5.652874,0 l -5.623167,5.625867 7.134292,7.13429 a 4.7467402,4.7467402 0 0 1 4.881782,1.137056 4.7494411,4.7494411 0 0 1 1.126928,4.913518 l 6.878384,6.876364 a 4.7453899,4.7453899 0 0 1 4.914193,1.128941 4.7534924,4.7534924 0 0 1 0,6.723096 4.7602445,4.7602445 0 0 1 -6.728488,0 4.7561933,4.7561933 0 0 1 -1.031723,-5.172132 L 38.008802,64.11534 v 16.878275 a 4.7534924,4.7534924 0 0 1 1.255894,7.623131 4.7534924,4.7534924 0 0 1 -6.723086,0 4.7534924,4.7534924 0 0 1 0,-6.72376 4.7669966,4.7669966 0 0 1 1.555688,-1.03915 V 63.820259 A 4.7595694,4.7595694 0 0 1 31.517989,57.585357 L 24.48363,50.549649 5.9071988,69.121357 a 4.000631,4.000631 0 0 0 0,5.652202 L 32.998054,101.86442 a 4.000631,4.000631 0 0 0 5.651523,0 L 65.613493,74.9005 a 4.000631,4.000631 0 0 0 0,-5.652202"
   id="path295"
   clip-path="url(#clipPath310)" /></svg>
